<?xml version="1.0" encoding="utf-8"?>
<!-- Generator: Adobe Illustrator 27.0.0, SVG Export Plug-In . SVG Version: 6.00 Build 0)  -->
<svg version="1.1" id="Layer_1" xmlns="http://www.w3.org/2000/svg" xmlns:xlink="http://www.w3.org/1999/xlink" x="0px" y="0px"
	 viewBox="0 0 93.7 49.5" style="enable-background:new 0 0 93.7 49.5;" xml:space="preserve">
<style type="text/css">
	.st0{display:none;}
	.st1{display:inline;}
	.st2{clip-path:url(#SVGID_00000129166472082184571700000016267135368782518670_);}
	.st3{fill:#A033B6;fill-opacity:0.33;}
</style>
<g class="st0">
	<g class="st1">
		<g>
			<defs>
				<path id="SVGID_1_" d="M91.4,0c2,0,3.1,2.5,1.6,3.9L49.7,47.5c-1.3,1.3-3.1,2-4.9,2H2.3c-2,0-3.1-2.5-1.6-3.9L44,2
					c1.3-1.3,3.1-2,4.9-2H91.4z M53.7,17.5c-0.5-0.5-1.4-0.5-2,0l-4.4,4.4L43,17.5c-0.5-0.5-1.4-0.5-2,0l-1,1c-0.5,0.5-0.5,1.4,0,2
					l4.4,4.4L40,29.2c-0.5,0.5-0.5,1.4,0,2l1,1c0.5,0.5,1.4,0.5,2,0l4.4-4.4l4.4,4.4c0.5,0.5,1.4,0.5,2,0l1-1c0.5-0.5,0.5-1.4,0-2
					l-4.4-4.4l4.4-4.4c0.5-0.5,0.5-1.4,0-2L53.7,17.5z"/>
			</defs>
			<clipPath id="SVGID_00000124845284447225492880000015958919451654167458_">
				<use xlink:href="#SVGID_1_"  style="overflow:visible;"/>
			</clipPath>
			<g style="clip-path:url(#SVGID_00000124845284447225492880000015958919451654167458_);">
				<g>
					<g>
						<defs>
							<polygon id="SVGID_00000073721889559714286930000011383438232175294378_" points="-56.6,-52 -55.6,-52 -56.6,-51 							"/>
						</defs>
						<clipPath id="SVGID_00000053529995798295985920000018284865893184595593_">
							<use xlink:href="#SVGID_00000073721889559714286930000011383438232175294378_"  style="overflow:visible;"/>
						</clipPath>
					</g>
				</g>
			</g>
		</g>
	</g>
</g>
<g>
	<path shape-rendering="crispEdges" class="st3" d="M91.4,0c2,0,3.1,2.5,1.6,3.9L49.7,47.5c-1.3,1.3-3.1,2-4.9,2H2.3
		c-2,0-3.1-2.5-1.6-3.9L44,2c1.3-1.3,3.1-2,4.9-2H91.4z M53.7,17.5c-0.5-0.5-1.4-0.5-2,0l-4.4,4.4L43,17.5c-0.5-0.5-1.4-0.5-2,0
		l-1,1c-0.5,0.5-0.5,1.4,0,2l4.4,4.4L40,29.2c-0.5,0.5-0.5,1.4,0,2l1,1c0.5,0.5,1.4,0.5,2,0l4.4-4.4l4.4,4.4c0.5,0.5,1.4,0.5,2,0
		l1-1c0.5-0.5,0.5-1.4,0-2l-4.4-4.4l4.4-4.4c0.5-0.5,0.5-1.4,0-2L53.7,17.5z"/>
</g>
</svg>
