<?xml version="1.0" encoding="utf-8"?>
<!-- Generator: Adobe Illustrator 27.0.0, SVG Export Plug-In . SVG Version: 6.00 Build 0)  -->
<svg version="1.1" id="Layer_1" xmlns="http://www.w3.org/2000/svg" xmlns:xlink="http://www.w3.org/1999/xlink" x="0px" y="0px"
	 viewBox="0 0 93.7 49.5" style="enable-background:new 0 0 93.7 49.5;" xml:space="preserve">
<style type="text/css">
	.st0{display:none;}
	.st1{display:inline;}
	.st2{clip-path:url(#SVGID_00000036220180107861200790000003868856492911477923_);}
	.st3{fill:#A033B6;fill-opacity:0.33;}
</style>
<g class="st0">
	<g class="st1">
		<g>
			<defs>
				<path id="SVGID_1_" d="M91.4,0c2,0,3.1,2.5,1.6,3.9L49.7,47.5c-1.3,1.3-3.1,2-4.9,2H2.3c-2,0-3.1-2.5-1.6-3.9L44,2
					c1.3-1.3,3.1-2,4.9-2H91.4z M31.4,29.4c-0.9,0-1.6,0.7-1.6,1.6v1c0,0.9,0.7,1.6,1.6,1.6h16.2c0.9,0,1.6-0.7,1.6-1.6v-1
					c0-0.9-0.7-1.6-1.6-1.6C47.6,29.4,31.4,29.4,31.4,29.4z"/>
			</defs>
			<clipPath id="SVGID_00000089565427165125759210000010527585008844386235_">
				<use xlink:href="#SVGID_1_"  style="overflow:visible;"/>
			</clipPath>
			<g style="clip-path:url(#SVGID_00000089565427165125759210000010527585008844386235_);">
				<g>
					<g>
						<defs>
							<polygon id="SVGID_00000102534671008126624770000016536836458773388421_" points="-56.6,-52 -55.6,-52 -56.6,-51 							"/>
						</defs>
						<clipPath id="SVGID_00000061430737085193588390000016514156947607085973_">
							<use xlink:href="#SVGID_00000102534671008126624770000016536836458773388421_"  style="overflow:visible;"/>
						</clipPath>
					</g>
				</g>
			</g>
		</g>
	</g>
</g>
<g>
	<path shape-rendering="crispEdges" class="st3" d="M91.4,0c2,0,3.1,2.5,1.6,3.9L49.7,47.5c-1.3,1.3-3.1,2-4.9,2H2.3
		c-2,0-3.1-2.5-1.6-3.9L44,2c1.3-1.3,3.1-2,4.9-2H91.4z M31.4,29.4c-0.9,0-1.6,0.7-1.6,1.6v1c0,0.9,0.7,1.6,1.6,1.6h16.2
		c0.9,0,1.6-0.7,1.6-1.6v-1c0-0.9-0.7-1.6-1.6-1.6C47.6,29.4,31.4,29.4,31.4,29.4z"/>
</g>
</svg>
