<svg width="460" height="222" viewBox="0 0 460 222" fill="none" xmlns="http://www.w3.org/2000/svg">
<path d="M0.5 18V222H250C250 194.938 271.938 173 299 173H437L460 150V0H18.5L0.5 18Z" fill="#A033B6" fill-opacity="0.33"/>
<path d="M348.258 38H345.211V33.875H334.5V38H331.453V29.5977C331.453 28.3711 331.664 27.2422 332.086 26.2109C332.508 25.1797 333.094 24.293 333.844 23.5508C334.594 22.8086 335.48 22.2305 336.504 21.8164C337.527 21.4023 338.645 21.1953 339.855 21.1953H346.723C346.934 21.1953 347.133 21.2344 347.32 21.3125C347.508 21.3906 347.672 21.5 347.812 21.6406C347.953 21.7812 348.062 21.9453 348.141 22.1328C348.219 22.3203 348.258 22.5195 348.258 22.7305V38ZM334.5 30.8281H345.211V24.2422H339.855C339.762 24.2422 339.562 24.2578 339.258 24.2891C338.961 24.3125 338.613 24.3789 338.215 24.4883C337.824 24.5977 337.41 24.7656 336.973 24.9922C336.535 25.2188 336.133 25.5312 335.766 25.9297C335.398 26.3281 335.094 26.8281 334.852 27.4297C334.617 28.0234 334.5 28.7461 334.5 29.5977V30.8281ZM365.367 33.7227C365.367 34.2461 365.301 34.7188 365.168 35.1406C365.035 35.5547 364.859 35.9219 364.641 36.2422C364.422 36.5547 364.168 36.8242 363.879 37.0508C363.59 37.2695 363.285 37.4492 362.965 37.5898C362.652 37.7305 362.336 37.8359 362.016 37.9062C361.695 37.9688 361.391 38 361.102 38H355.605V34.9531H361.102C361.508 34.9531 361.812 34.8477 362.016 34.6367C362.219 34.4258 362.32 34.1211 362.32 33.7227V29.6211C362.32 29.1992 362.215 28.8867 362.004 28.6836C361.801 28.4805 361.5 28.3789 361.102 28.3789H355.629C355.215 28.3789 354.902 28.4844 354.691 28.6953C354.48 28.8984 354.375 29.1992 354.375 29.5977V41.9609H351.328V29.5977C351.328 29.0742 351.395 28.6055 351.527 28.1914C351.66 27.7773 351.836 27.4141 352.055 27.1016C352.281 26.7812 352.539 26.5117 352.828 26.293C353.117 26.0664 353.418 25.8828 353.73 25.7422C354.051 25.6016 354.371 25.5 354.691 25.4375C355.02 25.3672 355.324 25.332 355.605 25.332H361.102C361.625 25.332 362.094 25.3984 362.508 25.5312C362.922 25.6641 363.285 25.8398 363.598 26.0586C363.918 26.2773 364.188 26.5312 364.406 26.8203C364.633 27.1094 364.816 27.4141 364.957 27.7344C365.098 28.0469 365.199 28.3633 365.262 28.6836C365.332 29.0039 365.367 29.3086 365.367 29.5977V33.7227ZM381.938 33.7227C381.938 34.2461 381.871 34.7188 381.738 35.1406C381.605 35.5547 381.43 35.9219 381.211 36.2422C380.992 36.5547 380.738 36.8242 380.449 37.0508C380.16 37.2695 379.855 37.4492 379.535 37.5898C379.223 37.7305 378.906 37.8359 378.586 37.9062C378.266 37.9688 377.961 38 377.672 38H372.176V34.9531H377.672C378.078 34.9531 378.383 34.8477 378.586 34.6367C378.789 34.4258 378.891 34.1211 378.891 33.7227V29.6211C378.891 29.1992 378.785 28.8867 378.574 28.6836C378.371 28.4805 378.07 28.3789 377.672 28.3789H372.199C371.785 28.3789 371.473 28.4844 371.262 28.6953C371.051 28.8984 370.945 29.1992 370.945 29.5977V41.9609H367.898V29.5977C367.898 29.0742 367.965 28.6055 368.098 28.1914C368.23 27.7773 368.406 27.4141 368.625 27.1016C368.852 26.7812 369.109 26.5117 369.398 26.293C369.688 26.0664 369.988 25.8828 370.301 25.7422C370.621 25.6016 370.941 25.5 371.262 25.4375C371.59 25.3672 371.895 25.332 372.176 25.332H377.672C378.195 25.332 378.664 25.3984 379.078 25.5312C379.492 25.6641 379.855 25.8398 380.168 26.0586C380.488 26.2773 380.758 26.5312 380.977 26.8203C381.203 27.1094 381.387 27.4141 381.527 27.7344C381.668 28.0469 381.77 28.3633 381.832 28.6836C381.902 29.0039 381.938 29.3086 381.938 29.5977V33.7227ZM395.754 38H392.707V21.1953H395.754V38ZM413.016 38H409.969V30.9688C409.969 30.5703 409.898 30.2148 409.758 29.9023C409.625 29.582 409.441 29.3086 409.207 29.082C408.973 28.8555 408.695 28.6836 408.375 28.5664C408.062 28.4414 407.723 28.3789 407.355 28.3789H402.023V38H398.977V26.8438C398.977 26.6328 399.016 26.4375 399.094 26.2578C399.172 26.0703 399.281 25.9102 399.422 25.7773C399.562 25.6367 399.727 25.5273 399.914 25.4492C400.102 25.3711 400.301 25.332 400.512 25.332H407.379C407.762 25.332 408.164 25.375 408.586 25.4609C409.016 25.5469 409.438 25.6875 409.852 25.8828C410.273 26.0703 410.672 26.3125 411.047 26.6094C411.43 26.8984 411.766 27.2539 412.055 27.6758C412.352 28.0898 412.586 28.5703 412.758 29.1172C412.93 29.6641 413.016 30.2812 413.016 30.9688V38ZM426.902 28.3789H420.012V25.332H426.902V28.3789ZM426.902 22.8828H420.035C419.621 22.8828 419.309 22.9883 419.098 23.1992C418.887 23.4023 418.781 23.7031 418.781 24.1016V38H415.734V24.1016C415.734 23.5781 415.801 23.1094 415.934 22.6953C416.066 22.2812 416.242 21.918 416.461 21.6055C416.688 21.2852 416.945 21.0156 417.234 20.7969C417.523 20.5703 417.824 20.3867 418.137 20.2461C418.457 20.1055 418.777 20.0039 419.098 19.9414C419.418 19.8711 419.723 19.8359 420.012 19.8359H426.902V22.8828ZM442.641 33.7227C442.641 34.2461 442.574 34.7188 442.441 35.1406C442.309 35.5547 442.133 35.9219 441.914 36.2422C441.695 36.5547 441.441 36.8242 441.152 37.0508C440.863 37.2695 440.559 37.4492 440.238 37.5898C439.926 37.7305 439.605 37.8359 439.277 37.9062C438.957 37.9688 438.652 38 438.363 38H432.867C432.445 38 431.984 37.9258 431.484 37.7773C430.984 37.6289 430.52 37.3867 430.09 37.0508C429.668 36.707 429.312 36.2656 429.023 35.7266C428.742 35.1797 428.602 34.5117 428.602 33.7227V29.5977C428.602 28.8164 428.742 28.1562 429.023 27.6172C429.312 27.0703 429.668 26.6289 430.09 26.293C430.52 25.9492 430.984 25.7031 431.484 25.5547C431.984 25.4062 432.445 25.332 432.867 25.332H438.363C439.145 25.332 439.809 25.4727 440.355 25.7539C440.902 26.0352 441.344 26.3906 441.68 26.8203C442.016 27.2422 442.258 27.7031 442.406 28.2031C442.562 28.7031 442.641 29.168 442.641 29.5977V33.7227ZM439.594 29.6211C439.594 29.1992 439.488 28.8867 439.277 28.6836C439.066 28.4805 438.762 28.3789 438.363 28.3789H432.891C432.484 28.3789 432.176 28.4844 431.965 28.6953C431.754 28.8984 431.648 29.1992 431.648 29.5977V33.7227C431.648 34.1211 431.754 34.4258 431.965 34.6367C432.176 34.8477 432.484 34.9531 432.891 34.9531H438.363C438.777 34.9531 439.086 34.8477 439.289 34.6367C439.492 34.4258 439.594 34.1211 439.594 33.7227V29.6211Z" fill="black"/>
</svg>
