<svg width="286" height="53" viewBox="0 0 286 53" fill="none" xmlns="http://www.w3.org/2000/svg">
<path d="M36.7262 10.2692L12.3906 51.9063H0.619507L30.7633 0L36.7262 10.2692Z" fill="white"/>
<path d="M26.5272 45.3195H44.6805L41.3003 39.2602H24.4538L30.1285 28.7979H35.4882L41.2829 18.1143L60.9063 51.9063H22.9544L26.5272 45.3195Z" fill="white"/>
<path d="M65.0437 52L77.5272 23.3042H81.945L94.3069 52H88.4705L85.7955 45.434H73.3525L70.7585 52H65.0437ZM75.0953 41.0567H84.0121L79.5942 29.3838L75.0953 41.0567ZM110.724 34.9365L107.563 37.7331C106.712 36.5983 105.09 35.6255 103.307 35.6255C101.767 35.6255 100.186 36.193 100.186 37.7331C100.186 39.2328 101.686 39.6381 104.401 40.2866C107.279 40.9756 110.684 42.2726 110.684 46.0825C110.684 50.8246 106.833 52.5674 102.577 52.5674C99.5782 52.5674 96.4573 51.4326 94.5929 49.3655L97.7948 46.3662C98.8486 47.7443 100.672 48.7981 102.78 48.7981C104.199 48.7981 105.901 48.2306 105.901 46.4878C105.901 44.8666 104.401 44.3802 101.443 43.6912C98.5649 43.0022 95.6872 41.8268 95.6872 38.179C95.6872 33.8422 99.5782 31.9778 103.429 31.9778C106.225 31.9778 109.143 32.9505 110.724 34.9365ZM128.733 34.9365L125.572 37.7331C124.721 36.5983 123.1 35.6255 121.316 35.6255C119.776 35.6255 118.195 36.193 118.195 37.7331C118.195 39.2328 119.695 39.6381 122.411 40.2866C125.288 40.9756 128.693 42.2726 128.693 46.0825C128.693 50.8246 124.842 52.5674 120.587 52.5674C117.587 52.5674 114.467 51.4326 112.602 49.3655L115.804 46.3662C116.858 47.7443 118.682 48.7981 120.789 48.7981C122.208 48.7981 123.91 48.2306 123.91 46.4878C123.91 44.8666 122.411 44.3802 119.452 43.6912C116.574 43.0022 113.697 41.8268 113.697 38.179C113.697 33.8422 117.587 31.9778 121.438 31.9778C124.235 31.9778 127.153 32.9505 128.733 34.9365ZM133.003 52V32.5452H137.866V52H133.003ZM132.314 25.9387C132.314 24.3985 133.611 23.0205 135.394 23.0205C137.177 23.0205 138.556 24.2769 138.556 25.9387C138.556 27.6004 137.177 28.8569 135.394 28.8569C133.611 28.8569 132.314 27.4788 132.314 25.9387ZM157.588 34.9365L154.427 37.7331C153.575 36.5983 151.954 35.6255 150.171 35.6255C148.631 35.6255 147.05 36.193 147.05 37.7331C147.05 39.2328 148.55 39.6381 151.265 40.2866C154.143 40.9756 157.547 42.2726 157.547 46.0825C157.547 50.8246 153.697 52.5674 149.441 52.5674C146.442 52.5674 143.321 51.4326 141.457 49.3655L144.659 46.3662C145.712 47.7443 147.536 48.7981 149.644 48.7981C151.062 48.7981 152.765 48.2306 152.765 46.4878C152.765 44.8666 151.265 44.3802 148.306 43.6912C145.429 43.0022 142.551 41.8268 142.551 38.179C142.551 33.8422 146.442 31.9778 150.292 31.9778C153.089 31.9778 156.007 32.9505 157.588 34.9365ZM162.384 36.4362H158.98V32.5452H162.384V26.9114H167.167V32.5452H172.031V36.4362H167.167V45.4745C167.167 47.2174 167.572 48.4738 169.72 48.4738C170.369 48.4738 171.22 48.3522 171.787 48.0685L171.949 51.8784C171.098 52.2027 169.801 52.4053 168.707 52.4053C163.56 52.4053 162.384 49.2439 162.384 45.5151V36.4362Z" fill="white"/>
<path d="M193.749 25.655L190.425 29.3027C189.331 27.8842 187.183 26.8303 185.156 26.8303C182.805 26.8303 180.09 27.9652 180.09 30.7618C180.09 33.3963 182.319 34.1664 185.561 35.1797C189.25 36.3146 193.951 37.9358 193.951 43.5696C193.951 49.7303 189.128 52.7296 183.494 52.7296C179.766 52.7296 175.915 51.311 173.645 48.6359L177.293 45.2314C178.712 47.1768 181.306 48.3928 183.575 48.3928C185.967 48.3928 188.763 47.2174 188.763 44.137C188.763 41.1377 185.764 40.2866 182.157 39.1517C178.671 38.0574 174.902 36.3551 174.902 31.005C174.902 25.1686 180.211 22.5746 185.399 22.5746C188.277 22.5746 191.56 23.5879 193.749 25.655ZM202.553 40.3271H212.523C212.523 37.8142 211.105 35.6255 207.943 35.6255C205.066 35.6255 202.755 37.6116 202.553 40.3271ZM217.387 42.5158C217.387 42.9616 217.387 43.3669 217.347 43.8128H202.553C202.755 46.5689 205.268 48.5954 208.105 48.5954C210.537 48.5954 212.159 47.6227 213.253 46.0825L216.495 48.6765C214.59 51.2704 211.834 52.5674 208.146 52.5674C202.147 52.5674 197.689 48.717 197.689 42.3942C197.689 36.1119 202.107 31.9778 207.984 31.9778C213.415 31.9778 217.387 35.504 217.387 42.5158ZM222.097 52V32.5452H226.718V35.6661H226.799C227.65 33.7206 229.96 31.9778 232.838 31.9778C237.905 31.9778 240.012 35.8687 240.012 39.8407V52H235.148V41.2188C235.148 38.9085 234.622 36.0309 231.501 36.0309C228.42 36.0309 226.961 38.7059 226.961 41.2999V52H222.097ZM259.509 34.9365L256.347 37.7331C255.496 36.5983 253.875 35.6255 252.092 35.6255C250.551 35.6255 248.971 36.193 248.971 37.7331C248.971 39.2328 250.47 39.6381 253.186 40.2866C256.064 40.9756 259.468 42.2726 259.468 46.0825C259.468 50.8246 255.618 52.5674 251.362 52.5674C248.363 52.5674 245.242 51.4326 243.377 49.3655L246.579 46.3662C247.633 47.7443 249.457 48.7981 251.565 48.7981C252.983 48.7981 254.686 48.2306 254.686 46.4878C254.686 44.8666 253.186 44.3802 250.227 43.6912C247.349 43.0022 244.472 41.8268 244.472 38.179C244.472 33.8422 248.363 31.9778 252.213 31.9778C255.01 31.9778 257.928 32.9505 259.509 34.9365ZM267.426 40.3271H277.396C277.396 37.8142 275.978 35.6255 272.816 35.6255C269.939 35.6255 267.629 37.6116 267.426 40.3271ZM282.26 42.5158C282.26 42.9616 282.26 43.3669 282.22 43.8128H267.426C267.629 46.5689 270.141 48.5954 272.979 48.5954C275.41 48.5954 277.032 47.6227 278.126 46.0825L281.368 48.6765C279.464 51.2704 276.707 52.5674 273.019 52.5674C267.021 52.5674 262.562 48.717 262.562 42.3942C262.562 36.1119 266.98 31.9778 272.857 31.9778C278.288 31.9778 282.26 35.504 282.26 42.5158Z" fill="#A033B6"/>
</svg>
