<svg width="390" height="542" viewBox="0 0 390 542" fill="none" xmlns="http://www.w3.org/2000/svg">
<path d="M2.00004 0.5H67.5L122 55.5H373L373 389.589L390 406.5V451L373 469.589V542H21L0.928223 520.5L2.00004 0.5Z" fill="white"/>
<path d="M67.0825 1.5L121.29 56.2041L121.583 56.5H372L372 389.589V390.005L372.294 390.298L389 406.915V450.612L372.262 468.914L372 469.2V541H21.4351L1.92822 520.105L2.99854 1.5H67.0825Z" stroke="black" stroke-opacity="0.17" stroke-width="2"/>
<path d="M273.992 97H270.922V86.9922L265.52 96.4961C265.387 96.7383 265.199 96.9219 264.957 97.0469C264.723 97.1719 264.469 97.2344 264.195 97.2344C263.93 97.2344 263.68 97.1719 263.445 97.0469C263.219 96.9219 263.039 96.7383 262.906 96.4961L257.48 86.9922V97H254.434V81.4961C254.434 81.1445 254.535 80.832 254.738 80.5586C254.949 80.2852 255.223 80.1016 255.559 80.0078C255.723 79.9688 255.887 79.957 256.051 79.9727C256.215 79.9805 256.371 80.0156 256.52 80.0781C256.676 80.1328 256.816 80.2148 256.941 80.3242C257.066 80.4258 257.172 80.5508 257.258 80.6992L264.195 92.7578L271.133 80.6992C271.312 80.4023 271.559 80.1914 271.871 80.0664C272.191 79.9414 272.523 79.9219 272.867 80.0078C273.195 80.1016 273.465 80.2852 273.676 80.5586C273.887 80.832 273.992 81.1445 273.992 81.4961V97ZM290.211 92.8047C290.211 93.2266 290.137 93.6836 289.988 94.1758C289.84 94.6602 289.598 95.1133 289.262 95.5352C288.934 95.9492 288.5 96.2969 287.961 96.5781C287.43 96.8594 286.781 97 286.016 97H280.52C280.098 97 279.641 96.9258 279.148 96.7773C278.664 96.6289 278.211 96.3906 277.789 96.0625C277.375 95.7266 277.027 95.293 276.746 94.7617C276.465 94.2227 276.324 93.5703 276.324 92.8047C276.324 92.3828 276.398 91.9258 276.547 91.4336C276.695 90.9414 276.934 90.4883 277.262 90.0742C277.598 89.6523 278.031 89.3008 278.562 89.0195C279.102 88.7383 279.754 88.5977 280.52 88.5977H286.016V91.5039H280.52C280.105 91.5039 279.785 91.6328 279.559 91.8906C279.332 92.1406 279.219 92.4531 279.219 92.8281C279.219 93.2266 279.348 93.5391 279.605 93.7656C279.871 93.9844 280.184 94.0938 280.543 94.0938H286.016C286.43 94.0938 286.75 93.9688 286.977 93.7188C287.203 93.4688 287.316 93.1562 287.316 92.7812V88.5273C287.316 88.1289 287.191 87.8125 286.941 87.5781C286.699 87.3438 286.391 87.2266 286.016 87.2266H279.324V84.332H286.016C286.438 84.332 286.891 84.4062 287.375 84.5547C287.867 84.7031 288.32 84.9453 288.734 85.2812C289.156 85.6094 289.508 86.043 289.789 86.582C290.07 87.1133 290.211 87.7617 290.211 88.5273V92.8047ZM305.082 97H296.82C296.398 97 295.938 96.9258 295.438 96.7773C294.938 96.6289 294.473 96.3867 294.043 96.0508C293.621 95.707 293.266 95.2656 292.977 94.7266C292.695 94.1797 292.555 93.5117 292.555 92.7227V88.5977C292.555 88.3086 292.586 88.0039 292.648 87.6836C292.719 87.3633 292.824 87.0469 292.965 86.7344C293.105 86.4141 293.285 86.1094 293.504 85.8203C293.73 85.5312 294 85.2773 294.312 85.0586C294.633 84.8398 295 84.6641 295.414 84.5312C295.828 84.3984 296.297 84.332 296.82 84.332H305.082V87.3789H296.82C296.422 87.3789 296.117 87.4805 295.906 87.6836C295.703 87.8867 295.602 88.1992 295.602 88.6211V92.7227C295.602 93.1211 295.707 93.4258 295.918 93.6367C296.129 93.8477 296.438 93.9531 296.844 93.9531H305.082V97ZM318.688 87.3789H311.832C311.418 87.3789 311.105 87.4844 310.895 87.6953C310.684 87.8984 310.578 88.1992 310.578 88.5977V97H307.531V88.5977C307.531 88.0742 307.598 87.6055 307.73 87.1914C307.863 86.7773 308.039 86.4141 308.258 86.1016C308.484 85.7812 308.742 85.5117 309.031 85.293C309.32 85.0664 309.621 84.8828 309.934 84.7422C310.254 84.6016 310.574 84.5 310.895 84.4375C311.223 84.3672 311.527 84.332 311.809 84.332H318.688V87.3789ZM334.438 92.7227C334.438 93.2461 334.371 93.7188 334.238 94.1406C334.105 94.5547 333.93 94.9219 333.711 95.2422C333.492 95.5547 333.238 95.8242 332.949 96.0508C332.66 96.2695 332.355 96.4492 332.035 96.5898C331.723 96.7305 331.402 96.8359 331.074 96.9062C330.754 96.9688 330.449 97 330.16 97H324.664C324.242 97 323.781 96.9258 323.281 96.7773C322.781 96.6289 322.316 96.3867 321.887 96.0508C321.465 95.707 321.109 95.2656 320.82 94.7266C320.539 94.1797 320.398 93.5117 320.398 92.7227V88.5977C320.398 87.8164 320.539 87.1562 320.82 86.6172C321.109 86.0703 321.465 85.6289 321.887 85.293C322.316 84.9492 322.781 84.7031 323.281 84.5547C323.781 84.4062 324.242 84.332 324.664 84.332H330.16C330.941 84.332 331.605 84.4727 332.152 84.7539C332.699 85.0352 333.141 85.3906 333.477 85.8203C333.812 86.2422 334.055 86.7031 334.203 87.2031C334.359 87.7031 334.438 88.168 334.438 88.5977V92.7227ZM331.391 88.6211C331.391 88.1992 331.285 87.8867 331.074 87.6836C330.863 87.4805 330.559 87.3789 330.16 87.3789H324.688C324.281 87.3789 323.973 87.4844 323.762 87.6953C323.551 87.8984 323.445 88.1992 323.445 88.5977V92.7227C323.445 93.1211 323.551 93.4258 323.762 93.6367C323.973 93.8477 324.281 93.9531 324.688 93.9531H330.16C330.574 93.9531 330.883 93.8477 331.086 93.6367C331.289 93.4258 331.391 93.1211 331.391 92.7227V88.6211ZM349.285 92.7227C349.285 93.2461 349.219 93.7188 349.086 94.1406C348.953 94.5547 348.777 94.9219 348.559 95.2422C348.34 95.5547 348.086 95.8242 347.797 96.0508C347.508 96.2695 347.203 96.4492 346.883 96.5898C346.57 96.7305 346.25 96.8359 345.922 96.9062C345.602 96.9688 345.297 97 345.008 97H336.758V93.9531H344.984C345.398 93.9531 345.711 93.8477 345.922 93.6367C346.133 93.4258 346.238 93.1211 346.238 92.7227C346.199 91.9102 345.789 91.5039 345.008 91.5039H340.285C339.613 91.5039 339.043 91.3867 338.574 91.1523C338.105 90.918 337.723 90.625 337.426 90.2734C337.137 89.9219 336.926 89.543 336.793 89.1367C336.668 88.7305 336.605 88.3516 336.605 88C336.605 87.3203 336.727 86.75 336.969 86.2891C337.211 85.8203 337.516 85.4414 337.883 85.1523C338.25 84.8633 338.648 84.6562 339.078 84.5312C339.508 84.3984 339.91 84.332 340.285 84.332H347.773V87.3789H340.309C340.152 87.3789 340.027 87.3984 339.934 87.4375C339.848 87.4688 339.781 87.5156 339.734 87.5781C339.695 87.6328 339.672 87.6953 339.664 87.7656C339.656 87.8281 339.652 87.8906 339.652 87.9531C339.66 88.0781 339.684 88.1758 339.723 88.2461C339.762 88.3164 339.809 88.3672 339.863 88.3984C339.926 88.4297 339.992 88.4492 340.062 88.457C340.141 88.457 340.215 88.457 340.285 88.457H345.008C345.789 88.457 346.453 88.5977 347 88.8789C347.547 89.1602 347.988 89.5156 348.324 89.9453C348.66 90.3672 348.902 90.8281 349.051 91.3281C349.207 91.8281 349.285 92.293 349.285 92.7227Z" fill="black"/>
<line x1="349" y1="110" x2="178" y2="110" stroke="#D4D4D4" stroke-width="2" stroke-linecap="round"/>
</svg>
