<svg width="1080" height="813" viewBox="0 0 1080 813" fill="none" xmlns="http://www.w3.org/2000/svg">
<rect x="0.5" y="0.5" width="1079" height="812" stroke="black" stroke-opacity="0.01"/>
<path d="M233.841 73.9604H463.531L521.097 16.394H1009.26C1018.8 16.394 1026.53 24.1258 1026.53 33.6636L1026.53 253.567L979.325 300.772H846.348C830.451 300.772 817.564 313.659 817.564 329.555V364.67L883.189 430.296H1014.44L1026.53 442.385V761.303C1026.53 770.841 1018.8 778.573 1009.26 778.573H549.305L551.031 776.846L342.642 656.532H72.6553V631.779L26.0264 585.15V529.886C45.1022 529.886 60.5664 514.422 60.5664 495.346C60.5663 476.27 45.1021 460.806 26.0264 460.806V433.174C45.1022 433.174 60.5664 417.71 60.5664 398.634C60.5662 379.857 45.5816 364.579 26.918 364.106L26.0264 364.095V336.463C45.1021 336.463 60.5663 320.999 60.5664 301.923C60.5664 282.848 45.1022 267.383 26.0264 267.383V239.751C45.1022 239.751 60.5664 224.287 60.5664 205.211C60.5662 186.434 45.5816 171.156 26.918 170.683L26.0264 170.672V143.041C45.1021 143.041 60.5663 127.576 60.5664 108.5C60.5664 89.7228 45.5817 74.4451 26.918 73.9722L26.0264 73.9604V33.6636C26.0266 24.126 33.7583 16.3942 43.2959 16.394H176.274L233.841 73.9604Z" fill="white"/>
</svg>
