<svg width="354" height="401" viewBox="0 0 354 401" fill="none" xmlns="http://www.w3.org/2000/svg">
<path fill-rule="evenodd" clip-rule="evenodd" d="M354 112.312V182.195L309.5 228.194V377.369L281.5 401H41L0 377.369V182.195L14.748 165.436V112.312L0 95.8397V0H241.5L354 112.312ZM295.926 113.713C294.473 112.271 292 113.298 292 115.343V131.691C292 133.527 292.734 135.288 294.038 136.582L337.581 179.796C339.034 181.237 341.507 180.211 341.507 178.166V161.818C341.507 159.982 340.774 158.221 339.47 156.927L295.926 113.713ZM295.926 76.7749C294.473 75.3333 292 76.3602 292 78.405V94.7526C292 96.5887 292.734 98.3494 294.038 99.6438L337.581 142.858C339.034 144.299 341.507 143.272 341.507 141.228V124.88C341.507 123.044 340.774 121.283 339.47 119.989L295.926 76.7749Z" fill="#232323"/>
<path d="M233.5 25.4575H25.5V92.3456L42 110.815V168.219L25.5 186.189V360.33L49 373.875H269.5L286 357.402V222.628L317 191.679L273 147.753V64.8915L233.5 25.4575Z" fill="#E0BCE7"/>
<path d="M72.5859 56.1953L64.6289 72.4023C64.5039 72.6523 64.3164 72.8516 64.0664 73C63.8242 73.1562 63.5547 73.2344 63.2578 73.2344C62.9688 73.2344 62.6992 73.1562 62.4492 73C62.207 72.8516 62.0195 72.6523 61.8867 72.4023L53.9414 56.1953H57.3516L63.2578 68.3008L69.1875 56.1953H72.5859ZM86.9062 68.7227C86.9062 69.2461 86.8398 69.7188 86.707 70.1406C86.5742 70.5547 86.3984 70.9219 86.1797 71.2422C85.9609 71.5547 85.707 71.8242 85.418 72.0508C85.1289 72.2695 84.8242 72.4492 84.5039 72.5898C84.1914 72.7305 83.8711 72.8359 83.543 72.9062C83.2227 72.9688 82.918 73 82.6289 73H77.1328C76.7109 73 76.25 72.9258 75.75 72.7773C75.25 72.6289 74.7852 72.3867 74.3555 72.0508C73.9336 71.707 73.5781 71.2656 73.2891 70.7266C73.0078 70.1797 72.8672 69.5117 72.8672 68.7227V64.5977C72.8672 63.8164 73.0078 63.1562 73.2891 62.6172C73.5781 62.0703 73.9336 61.6289 74.3555 61.293C74.7852 60.9492 75.25 60.7031 75.75 60.5547C76.25 60.4062 76.7109 60.332 77.1328 60.332H82.6289C83.4102 60.332 84.0742 60.4727 84.6211 60.7539C85.168 61.0352 85.6094 61.3906 85.9453 61.8203C86.2812 62.2422 86.5234 62.7031 86.6719 63.2031C86.8281 63.7031 86.9062 64.168 86.9062 64.5977V68.7227ZM83.8594 64.6211C83.8594 64.1992 83.7539 63.8867 83.543 63.6836C83.332 63.4805 83.0273 63.3789 82.6289 63.3789H77.1562C76.75 63.3789 76.4414 63.4844 76.2305 63.6953C76.0195 63.8984 75.9141 64.1992 75.9141 64.5977V68.7227C75.9141 69.1211 76.0195 69.4258 76.2305 69.6367C76.4414 69.8477 76.75 69.9531 77.1562 69.9531H82.6289C83.043 69.9531 83.3516 69.8477 83.5547 69.6367C83.7578 69.4258 83.8594 69.1211 83.8594 68.7227V64.6211ZM92.6016 57.7305H89.5547V54.9766H92.6016V57.7305ZM92.6016 73H89.5547V60.332H92.6016V73ZM107.801 73H99.5391C99.1172 73 98.6562 72.9258 98.1562 72.7773C97.6562 72.6289 97.1914 72.3867 96.7617 72.0508C96.3398 71.707 95.9844 71.2656 95.6953 70.7266C95.4141 70.1797 95.2734 69.5117 95.2734 68.7227V64.5977C95.2734 64.3086 95.3047 64.0039 95.3672 63.6836C95.4375 63.3633 95.543 63.0469 95.6836 62.7344C95.8242 62.4141 96.0039 62.1094 96.2227 61.8203C96.4492 61.5312 96.7188 61.2773 97.0312 61.0586C97.3516 60.8398 97.7188 60.6641 98.1328 60.5312C98.5469 60.3984 99.0156 60.332 99.5391 60.332H107.801V63.3789H99.5391C99.1406 63.3789 98.8359 63.4805 98.625 63.6836C98.4219 63.8867 98.3203 64.1992 98.3203 64.6211V68.7227C98.3203 69.1211 98.4258 69.4258 98.6367 69.6367C98.8477 69.8477 99.1562 69.9531 99.5625 69.9531H107.801V73ZM123.855 64.5273C123.855 64.9492 123.781 65.4062 123.633 65.8984C123.484 66.3828 123.242 66.8359 122.906 67.2578C122.578 67.6719 122.145 68.0195 121.605 68.3008C121.074 68.582 120.426 68.7227 119.66 68.7227H114.164V65.8281H119.66C120.074 65.8281 120.395 65.7031 120.621 65.4531C120.848 65.1953 120.961 64.8789 120.961 64.5039C120.961 64.1055 120.832 63.793 120.574 63.5664C120.324 63.3398 120.02 63.2266 119.66 63.2266H114.164C113.75 63.2266 113.43 63.3555 113.203 63.6133C112.977 63.8633 112.863 64.1758 112.863 64.5508V68.8047C112.863 69.2109 112.988 69.5273 113.238 69.7539C113.496 69.9805 113.812 70.0938 114.188 70.0938H119.66V73H114.164C113.742 73 113.285 72.9258 112.793 72.7773C112.309 72.6289 111.855 72.3906 111.434 72.0625C111.02 71.7266 110.672 71.293 110.391 70.7617C110.109 70.2227 109.969 69.5703 109.969 68.8047V64.5273C109.969 64.1055 110.043 63.6523 110.191 63.168C110.34 62.6758 110.578 62.2227 110.906 61.8086C111.242 61.3867 111.676 61.0352 112.207 60.7539C112.746 60.4727 113.398 60.332 114.164 60.332H119.66C120.082 60.332 120.535 60.4062 121.02 60.5547C121.512 60.7031 121.965 60.9453 122.379 61.2812C122.801 61.6094 123.152 62.043 123.434 62.582C123.715 63.1133 123.855 63.7617 123.855 64.5273ZM153.609 73H150.539V62.9922L145.137 72.4961C145.004 72.7383 144.816 72.9219 144.574 73.0469C144.34 73.1719 144.086 73.2344 143.812 73.2344C143.547 73.2344 143.297 73.1719 143.062 73.0469C142.836 72.9219 142.656 72.7383 142.523 72.4961L137.098 62.9922V73H134.051V57.4961C134.051 57.1445 134.152 56.832 134.355 56.5586C134.566 56.2852 134.84 56.1016 135.176 56.0078C135.34 55.9688 135.504 55.957 135.668 55.9727C135.832 55.9805 135.988 56.0156 136.137 56.0781C136.293 56.1328 136.434 56.2148 136.559 56.3242C136.684 56.4258 136.789 56.5508 136.875 56.6992L143.812 68.7578L150.75 56.6992C150.93 56.4023 151.176 56.1914 151.488 56.0664C151.809 55.9414 152.141 55.9219 152.484 56.0078C152.812 56.1016 153.082 56.2852 153.293 56.5586C153.504 56.832 153.609 57.1445 153.609 57.4961V73ZM170.508 68.7227C170.508 69.2461 170.441 69.7188 170.309 70.1406C170.176 70.5547 170 70.9219 169.781 71.2422C169.562 71.5547 169.309 71.8242 169.02 72.0508C168.73 72.2695 168.426 72.4492 168.105 72.5898C167.793 72.7305 167.473 72.8359 167.145 72.9062C166.824 72.9688 166.52 73 166.23 73H160.734C160.312 73 159.852 72.9258 159.352 72.7773C158.852 72.6289 158.387 72.3867 157.957 72.0508C157.535 71.707 157.18 71.2656 156.891 70.7266C156.609 70.1797 156.469 69.5117 156.469 68.7227V64.5977C156.469 63.8164 156.609 63.1562 156.891 62.6172C157.18 62.0703 157.535 61.6289 157.957 61.293C158.387 60.9492 158.852 60.7031 159.352 60.5547C159.852 60.4062 160.312 60.332 160.734 60.332H166.23C167.012 60.332 167.676 60.4727 168.223 60.7539C168.77 61.0352 169.211 61.3906 169.547 61.8203C169.883 62.2422 170.125 62.7031 170.273 63.2031C170.43 63.7031 170.508 64.168 170.508 64.5977V68.7227ZM167.461 64.6211C167.461 64.1992 167.355 63.8867 167.145 63.6836C166.934 63.4805 166.629 63.3789 166.23 63.3789H160.758C160.352 63.3789 160.043 63.4844 159.832 63.6953C159.621 63.8984 159.516 64.1992 159.516 64.5977V68.7227C159.516 69.1211 159.621 69.4258 159.832 69.6367C160.043 69.8477 160.352 69.9531 160.758 69.9531H166.23C166.645 69.9531 166.953 69.8477 167.156 69.6367C167.359 69.4258 167.461 69.1211 167.461 68.7227V64.6211ZM187.008 68.7227C187.008 69.2461 186.941 69.7188 186.809 70.1406C186.676 70.5547 186.5 70.9219 186.281 71.2422C186.062 71.5547 185.809 71.8242 185.52 72.0508C185.23 72.2695 184.926 72.4492 184.605 72.5898C184.293 72.7305 183.973 72.8359 183.645 72.9062C183.324 72.9688 183.02 73 182.73 73H177.234C176.711 73 176.242 72.9336 175.828 72.8008C175.414 72.668 175.047 72.4922 174.727 72.2734C174.414 72.0469 174.145 71.7891 173.918 71.5C173.699 71.2109 173.52 70.9102 173.379 70.5977C173.238 70.2773 173.133 69.957 173.062 69.6367C173 69.3086 172.969 69.0039 172.969 68.7227V64.5977C172.969 63.8164 173.109 63.1562 173.391 62.6172C173.68 62.0703 174.035 61.6289 174.457 61.293C174.887 60.9492 175.352 60.7031 175.852 60.5547C176.352 60.4062 176.812 60.332 177.234 60.332H182.73V63.3789H177.258C176.852 63.3789 176.543 63.4844 176.332 63.6953C176.121 63.8984 176.016 64.1992 176.016 64.5977V68.6992C176.016 69.1133 176.117 69.4258 176.32 69.6367C176.531 69.8477 176.836 69.9531 177.234 69.9531H182.73C183.145 69.9531 183.453 69.8477 183.656 69.6367C183.859 69.4258 183.961 69.1211 183.961 68.7227V54.9766H187.008V68.7227ZM203.766 71.4648C203.766 71.6836 203.727 71.8867 203.648 72.0742C203.57 72.2617 203.461 72.4258 203.32 72.5664C203.188 72.6992 203.027 72.8047 202.84 72.8828C202.66 72.9609 202.465 73 202.254 73H195.363C194.988 73 194.586 72.957 194.156 72.8711C193.734 72.7852 193.316 72.6484 192.902 72.4609C192.488 72.2656 192.086 72.0234 191.695 71.7344C191.312 71.4375 190.977 71.082 190.688 70.668C190.398 70.2461 190.164 69.7617 189.984 69.2148C189.812 68.668 189.727 68.0508 189.727 67.3633V60.332H192.773V67.3633C192.773 67.7617 192.84 68.1211 192.973 68.4414C193.113 68.7539 193.301 69.0234 193.535 69.25C193.77 69.4766 194.043 69.6523 194.355 69.7773C194.676 69.8945 195.02 69.9531 195.387 69.9531H200.719V60.332H203.766V71.4648ZM212.191 73H210.832C210.395 73 209.926 72.9258 209.426 72.7773C208.934 72.6289 208.473 72.3867 208.043 72.0508C207.613 71.707 207.258 71.2656 206.977 70.7266C206.695 70.1797 206.555 69.5117 206.555 68.7227V54.9766H209.602V68.7227C209.602 69.0977 209.719 69.3984 209.953 69.625C210.188 69.8438 210.48 69.9531 210.832 69.9531H212.191V73ZM227.777 64.5273C227.777 64.9492 227.703 65.4062 227.555 65.8984C227.406 66.3828 227.164 66.8359 226.828 67.2578C226.5 67.6719 226.066 68.0195 225.527 68.3008C224.996 68.582 224.348 68.7227 223.582 68.7227H218.086V65.8281H223.582C223.996 65.8281 224.316 65.7031 224.543 65.4531C224.77 65.1953 224.883 64.8789 224.883 64.5039C224.883 64.1055 224.754 63.793 224.496 63.5664C224.246 63.3398 223.941 63.2266 223.582 63.2266H218.086C217.672 63.2266 217.352 63.3555 217.125 63.6133C216.898 63.8633 216.785 64.1758 216.785 64.5508V68.8047C216.785 69.2109 216.91 69.5273 217.16 69.7539C217.418 69.9805 217.734 70.0938 218.109 70.0938H223.582V73H218.086C217.664 73 217.207 72.9258 216.715 72.7773C216.23 72.6289 215.777 72.3906 215.355 72.0625C214.941 71.7266 214.594 71.293 214.312 70.7617C214.031 70.2227 213.891 69.5703 213.891 68.8047V64.5273C213.891 64.1055 213.965 63.6523 214.113 63.168C214.262 62.6758 214.5 62.2227 214.828 61.8086C215.164 61.3867 215.598 61.0352 216.129 60.7539C216.668 60.4727 217.32 60.332 218.086 60.332H223.582C224.004 60.332 224.457 60.4062 224.941 60.5547C225.434 60.7031 225.887 60.9453 226.301 61.2812C226.723 61.6094 227.074 62.043 227.355 62.582C227.637 63.1133 227.777 63.7617 227.777 64.5273Z" fill="black"/>
</svg>
