<svg width="354" height="402" viewBox="0 0 354 402" fill="none" xmlns="http://www.w3.org/2000/svg">
<path fill-rule="evenodd" clip-rule="evenodd" d="M354 112.5V182.5L309.5 228.576V378L281.5 401.671H41L0 378V182.5L14.748 165.713V112.5L0 96V0H241.5L354 112.5ZM295.926 113.903C294.473 112.459 292 113.488 292 115.536V131.911C292 133.75 292.734 135.514 294.038 136.811L337.581 180.097C339.034 181.541 341.507 180.512 341.507 178.464V162.089C341.507 160.25 340.774 158.486 339.47 157.189L295.926 113.903ZM295.926 76.9033C294.473 75.4593 292 76.488 292 78.5361V94.9111C292 96.7503 292.734 98.5139 294.038 99.8105L337.581 143.097C339.034 144.541 341.507 143.512 341.507 141.464V125.089C341.507 123.25 340.774 121.486 339.47 120.189L295.926 76.9033Z" fill="#232323"/>
<path d="M233.5 25.5H25.5V92.5L42 111V168.5L25.5 186.5V360.932L49 374.5H269.5L286 358V223L317 192L273 148V65L233.5 25.5Z" fill="#E0BCE7"/>
</svg>
