<?xml version="1.0" encoding="utf-8"?>
<!-- Generator: Adobe Illustrator 27.0.0, SVG Export Plug-In . SVG Version: 6.00 Build 0)  -->
<svg version="1.1" id="Layer_1" xmlns="http://www.w3.org/2000/svg" xmlns:xlink="http://www.w3.org/1999/xlink" x="0px" y="0px"
	 viewBox="0 0 275 275" style="enable-background:new 0 0 275 275;" xml:space="preserve">
<style type="text/css">
	.st0{display:none;}
	.st1{display:inline;}
	.st2{clip-path:url(#SVGID_00000169530864942352400820000017656784301974074262_);}
	.st3{clip-path:url(#SVGID_00000092458721797842851860000018083748994672643775_);}
	.st4{fill-rule:evenodd;clip-rule:evenodd;fill:#A033B6;fill-opacity:0.33;}
	.st5{clip-path:url(#SVGID_00000067938008268091476990000014075698147401024427_);}
	.st6{clip-path:url(#SVGID_00000072277356963625882030000018331196906005618066_);}
	.st7{fill-rule:evenodd;clip-rule:evenodd;fill:#232323;}
	.st8{opacity:0.25;}
	.st9{fill:none;stroke:#FFFFFF;stroke-miterlimit:10;stroke-opacity:0.5;}
</style>
<g class="st0">
	<g class="st1">
		<defs>
			<path id="SVGID_1_" d="M137,107c16.6,0,30,13.4,30,30s-13.4,30-30,30s-30-13.4-30-30S120.4,107,137,107z M136.9,111.3
				c-14.1,0-25.6,11.4-25.6,25.6c0,14.1,11.4,25.6,25.6,25.6c14.1,0,25.6-11.4,25.6-25.6C162.4,122.7,151,111.3,136.9,111.3z"/>
		</defs>
		<clipPath id="SVGID_00000138546427150269423430000009800955346234331529_">
			<use xlink:href="#SVGID_1_"  style="overflow:visible;"/>
		</clipPath>
		<g style="clip-path:url(#SVGID_00000138546427150269423430000009800955346234331529_);">
			<g>
				<defs>
					<polygon id="SVGID_00000136370630563832348810000006032806099212646325_" points="50.4,55 51.4,55 50.4,56 					"/>
				</defs>
				<defs>
					<polygon id="SVGID_00000134937956227673847270000002774156912438985378_" points="48.4,53 47.4,53 48.4,52 					"/>
				</defs>
				<clipPath id="SVGID_00000018920183538258612130000007874909479912796824_">
					<use xlink:href="#SVGID_00000136370630563832348810000006032806099212646325_"  style="overflow:visible;"/>
				</clipPath>
				
					<clipPath id="SVGID_00000127750946203383145110000016603453432086821257_" style="clip-path:url(#SVGID_00000018920183538258612130000007874909479912796824_);">
					<use xlink:href="#SVGID_00000134937956227673847270000002774156912438985378_"  style="overflow:visible;"/>
				</clipPath>
			</g>
		</g>
	</g>
</g>
<g>
	<path shape-rendering="crispEdges" class="st4" d="M137,107c16.6,0,30,13.4,30,30s-13.4,30-30,30s-30-13.4-30-30S120.4,107,137,107
		z M136.9,111.3c-14.1,0-25.6,11.4-25.6,25.6c0,14.1,11.4,25.6,25.6,25.6c14.1,0,25.6-11.4,25.6-25.6
		C162.4,122.7,151,111.3,136.9,111.3z"/>
</g>
<g class="st0">
	<g class="st1">
		<defs>
			<path id="SVGID_00000077297645931171293660000012242498563709630616_" d="M137.5,0C213.4,0,275,61.6,275,137.5
				c0,75.9-61.6,137.5-137.5,137.5S0,213.4,0,137.5C0,61.6,61.6,0,137.5,0z M136.9,102.8c-18.8,0-34.1,15.3-34.1,34.1
				c0,18.8,15.3,34.1,34.1,34.1c18.8,0,34.1-15.3,34.1-34.1C171,118.1,155.7,102.8,136.9,102.8z"/>
		</defs>
		<clipPath id="SVGID_00000068677191483040493480000017554073173912718267_">
			<use xlink:href="#SVGID_00000077297645931171293660000012242498563709630616_"  style="overflow:visible;"/>
		</clipPath>
		<g style="clip-path:url(#SVGID_00000068677191483040493480000017554073173912718267_);">
			<g>
				<defs>
					<polygon id="SVGID_00000084499731587836550430000015669321217112556472_" points="-38.7,-35.6 -37.7,-35.6 -38.7,-34.6 					
						"/>
				</defs>
				<defs>
					<polygon id="SVGID_00000033362413708400490870000015493242706885884587_" points="-40.7,-37.6 -41.7,-37.6 -40.7,-38.6 					
						"/>
				</defs>
				<clipPath id="SVGID_00000098218833488419255840000008895913493636413078_">
					<use xlink:href="#SVGID_00000084499731587836550430000015669321217112556472_"  style="overflow:visible;"/>
				</clipPath>
				
					<clipPath id="SVGID_00000026162838912612642600000011002510071725392561_" style="clip-path:url(#SVGID_00000098218833488419255840000008895913493636413078_);">
					<use xlink:href="#SVGID_00000033362413708400490870000015493242706885884587_"  style="overflow:visible;"/>
				</clipPath>
			</g>
		</g>
	</g>
</g>
<g>
	<path class="st7" d="M137.5,0C213.4,0,275,61.6,275,137.5c0,75.9-61.6,137.5-137.5,137.5S0,213.4,0,137.5C0,61.6,61.6,0,137.5,0z
		 M136.9,102.8c-18.8,0-34.1,15.3-34.1,34.1c0,18.8,15.3,34.1,34.1,34.1c18.8,0,34.1-15.3,34.1-34.1
		C171,118.1,155.7,102.8,136.9,102.8z"/>
</g>
<g class="st8">
	<path class="st9" d="M216.3,137.5c0-43.5-35.3-78.8-78.8-78.9 M193.2,193.3c-14.3,14.3-34,23.1-55.7,23.1
		c-27.5,0-51.7-14.1-65.8-35.4 M58.8,133.9c1-21,10.1-39.9,24.4-53.5c11.8-11.2,27.1-18.8,44-21.1"/>
	<path class="st9" d="M146.3,200.4c34.7-4.8,58.9-37,54.1-71.7 M99.2,188.1c-13-9.8-22.2-24.6-24.6-41.9c-3.1-22,5.5-42.9,20.9-56.5
		 M131.6,74.2c16.9-1.5,32.9,3.6,45.4,13.5c10.2,8.2,18,19.6,21.7,32.8"/>
</g>
</svg>
