<svg width="275" height="273" viewBox="0 0 275 273" fill="none" xmlns="http://www.w3.org/2000/svg">
<g opacity="0.25">
<path d="M216.3 137.5C216.3 94.0001 181 58.7001 137.5 58.6001M193.2 193.3C178.9 207.6 159.2 216.4 137.5 216.4C110 216.4 85.8 202.3 71.7 181M58.8 133.9C59.8 112.9 68.9 94.0001 83.2 80.4001C95 69.2001 110.3 61.6001 127.2 59.3001" stroke="white" stroke-opacity="0.5" stroke-miterlimit="10"/>
<path d="M146.27 200.392C180.944 195.556 205.151 163.441 200.386 128.69M99.2195 188.146C86.2283 178.315 77.0198 163.561 74.6031 146.231C71.5404 124.269 80.0844 103.375 95.4924 89.7464M131.599 74.2086C148.45 72.6729 164.528 77.8395 176.962 87.748C187.203 95.9267 194.965 107.301 198.681 120.542" stroke="white" stroke-opacity="0.5" stroke-miterlimit="10"/>
</g>
</svg>
