<?xml version="1.0" encoding="utf-8"?>
<!-- Generator: Adobe Illustrator 27.0.0, SVG Export Plug-In . SVG Version: 6.00 Build 0)  -->
<svg version="1.1" id="Layer_1" xmlns="http://www.w3.org/2000/svg" xmlns:xlink="http://www.w3.org/1999/xlink" x="0px" y="0px"
	 viewBox="0 0 275 275" style="enable-background:new 0 0 275 275;" xml:space="preserve">
<style type="text/css">
	.st0{display:none;}
	.st1{display:inline;}
	.st2{clip-path:url(#SVGID_00000069382093019798133600000013449567125918665904_);}
	.st3{fill-rule:evenodd;clip-rule:evenodd;fill:#A033B6;fill-opacity:0.33;}
	.st4{clip-path:url(#SVGID_00000119821416143582038740000001662805402937153444_);}
	.st5{fill-rule:evenodd;clip-rule:evenodd;fill:#232323;}
	.st6{opacity:0.6;}
	.st7{fill:none;stroke:#FFFFFF;stroke-linecap:round;stroke-miterlimit:10;stroke-opacity:0.5;}
</style>
<g class="st0">
	<g class="st1">
		<g>
			<defs>
				<path id="SVGID_1_" d="M137,107c16.6,0,30,13.4,30,30s-13.4,30-30,30s-30-13.4-30-30S120.4,107,137,107z M136.9,111.3
					c-14.1,0-25.6,11.4-25.6,25.6c0,14.1,11.4,25.6,25.6,25.6c14.1,0,25.6-11.4,25.6-25.6C162.4,122.7,151,111.3,136.9,111.3z"/>
			</defs>
			<clipPath id="SVGID_00000070110289599137197320000004392526351465049011_">
				<use xlink:href="#SVGID_1_"  style="overflow:visible;"/>
			</clipPath>
			<g style="clip-path:url(#SVGID_00000070110289599137197320000004392526351465049011_);">
				<g>
					<g>
						<defs>
							<polygon id="SVGID_00000164497488224851560940000015050527727570215589_" points="50.4,55 51.4,55 50.4,56 							"/>
						</defs>
						<clipPath id="SVGID_00000071557682418015631640000011192410250528666796_">
							<use xlink:href="#SVGID_00000164497488224851560940000015050527727570215589_"  style="overflow:visible;"/>
						</clipPath>
					</g>
				</g>
			</g>
		</g>
	</g>
</g>
<g>
	<path shape-rendering="crispEdges" class="st3" d="M137,107c16.6,0,30,13.4,30,30s-13.4,30-30,30s-30-13.4-30-30S120.4,107,137,107
		z M136.9,111.3c-14.1,0-25.6,11.4-25.6,25.6c0,14.1,11.4,25.6,25.6,25.6c14.1,0,25.6-11.4,25.6-25.6
		C162.4,122.7,151,111.3,136.9,111.3z"/>
</g>
<g class="st0">
	<g class="st1">
		<g>
			<defs>
				<path id="SVGID_00000027585266035076862120000008235711420618061464_" d="M137.5,0C213.4,0,275,61.6,275,137.5
					S213.4,275,137.5,275S0,213.4,0,137.5S61.6,0,137.5,0z M136.9,102.8c-18.8,0-34.1,15.3-34.1,34.1s15.3,34.1,34.1,34.1
					s34.1-15.3,34.1-34.1S155.7,102.8,136.9,102.8z"/>
			</defs>
			<clipPath id="SVGID_00000082342736275830353160000012640474211657436604_">
				<use xlink:href="#SVGID_00000027585266035076862120000008235711420618061464_"  style="overflow:visible;"/>
			</clipPath>
			<g style="clip-path:url(#SVGID_00000082342736275830353160000012640474211657436604_);">
				<g>
					<g>
						<defs>
							<polygon id="SVGID_00000111877140719089320720000004348903534500441782_" points="-38.7,-35.6 -37.7,-35.6 -38.7,-34.6 
															"/>
						</defs>
						<clipPath id="SVGID_00000094581718036756257720000016052443118576339390_">
							<use xlink:href="#SVGID_00000111877140719089320720000004348903534500441782_"  style="overflow:visible;"/>
						</clipPath>
					</g>
				</g>
			</g>
		</g>
	</g>
</g>
<g>
	<path class="st5" d="M137.5,0C213.4,0,275,61.6,275,137.5S213.4,275,137.5,275S0,213.4,0,137.5S61.6,0,137.5,0z M136.9,102.8
		c-18.8,0-34.1,15.3-34.1,34.1s15.3,34.1,34.1,34.1s34.1-15.3,34.1-34.1S155.7,102.8,136.9,102.8z"/>
</g>
<g class="st6">
	<path class="st7" d="M216.3,137.5c0-43.5-35.3-78.8-78.8-78.9 M193.2,193.3c-14.3,14.3-34,23.1-55.7,23.1
		c-27.5,0-51.7-14.1-65.8-35.4 M58.8,133.9c1-21,10.1-39.9,24.4-53.5c11.8-11.2,27.1-18.8,44-21.1"/>
	<path class="st7" d="M146.3,200.4c34.7-4.8,58.9-37,54.1-71.7 M99.2,188.1c-13-9.8-22.2-24.6-24.6-41.9c-3.1-22,5.5-42.9,20.9-56.5
		 M131.6,74.2c16.9-1.5,32.9,3.6,45.4,13.5c10.2,8.2,18,19.6,21.7,32.8"/>
</g>
</svg>
